<svg width="24" height="24" viewBox="0 0 24 24" fill="none" xmlns="http://www.w3.org/2000/svg">
<path d="M13.1129 7.47501C12.9842 7.45286 12.7746 7.46718 12.6435 7.46503C12.0178 7.45474 11.4985 7.43118 11.0635 7.96906C10.6793 8.44432 10.6951 8.90003 10.7393 9.48069C10.6444 9.63901 9.75651 10.8069 9.63605 10.9073C9.47748 11.0393 9.27987 11.1386 9.10471 11.2478L7.8675 12.0104C7.10685 12.4839 7.26395 13.6139 8.12396 13.8221C8.44014 13.8987 8.69277 13.7658 8.95253 13.5944C9.21541 13.4209 9.47606 13.2479 9.73662 13.0727C10.1624 12.7892 10.5903 12.509 11.0203 12.2323C11.035 12.4384 11.0845 12.6486 11.1028 12.8476C11.141 13.2615 11.1956 13.6979 11.2212 14.111C11.1137 14.308 10.7842 14.7433 10.6429 14.9373L9.85352 16.0434C9.56514 16.4435 9.5689 16.7956 9.44813 17.2517C9.25095 17.9962 9.08951 18.7476 8.90225 19.4945C8.87062 19.6205 8.85152 19.7586 8.81585 19.882C8.74378 20.1312 8.68497 20.3638 8.64497 20.6212C8.61983 20.7738 8.61905 20.9295 8.64266 21.0823C8.79502 22.0845 10.1948 22.3081 10.7589 21.5408C10.9655 21.2599 10.938 21.0383 11.023 20.73C11.1527 20.2594 11.2187 19.7875 11.3522 19.3196C11.3966 19.1814 11.408 18.9782 11.4534 18.8466C11.5615 18.5329 11.605 18.0512 11.7075 17.7584C11.7917 17.5178 12.1654 17.1448 12.327 16.9158C12.3447 16.9472 12.3607 16.9801 12.3763 17.0125C12.5347 17.3417 12.7271 17.6521 12.8937 17.9771C12.9935 18.2043 13.3338 18.6304 13.4941 18.8462L14.411 20.0898L15.1242 21.0656C15.4293 21.4874 15.6474 21.893 16.1956 21.9865C16.5422 22.0455 16.9228 21.9192 17.1622 21.6593C17.2103 21.6076 17.253 21.551 17.2897 21.4902C17.6362 20.9064 17.4171 20.2855 17.0472 19.7895C17.008 19.737 16.9703 19.679 16.9321 19.6249L15.6962 17.8979C15.5526 17.6984 15.1907 17.2562 15.1363 17.0638C14.9922 16.5542 14.8684 16.004 14.7426 15.4887L14.5159 14.5528C14.4964 14.472 14.423 14.2188 14.4196 14.1587C14.4071 13.9387 14.5251 13.724 14.4985 13.477C14.4741 13.2508 14.4421 13.0264 14.4173 12.8017C14.3775 12.4057 14.3351 12.0098 14.2902 11.6143C14.2593 11.3619 14.2027 11.1315 14.1951 10.8758C14.257 10.9288 14.7652 11.411 14.7807 11.4503C14.9358 11.8446 14.981 12.3236 15.1 12.7368C15.2179 13.1463 15.2281 13.6241 15.4543 13.994C15.723 14.3819 16.3856 14.4912 16.7486 14.1905C17.2787 13.7658 17.0866 13.2692 16.9561 12.7009L16.7495 11.7813C16.6541 11.3564 16.5851 10.929 16.4628 10.5093C16.388 10.2525 16.1785 10.0829 15.9992 9.89966L15.3198 9.21761L14.3798 8.27173C13.9206 7.81218 13.7766 7.56837 13.1129 7.47501ZM14.0077 10.2693C13.9426 10.3062 13.8535 10.3492 13.8291 10.4269C13.8056 10.5013 13.9068 11.3143 13.9222 11.4678C13.9496 11.7414 13.9725 12.0169 14.0081 12.2895C14.0653 12.728 14.1917 13.3749 14.1276 13.8024C14.1023 13.9705 14.0215 14.1244 13.9308 14.2646C13.8368 14.4101 13.7199 14.5443 13.6125 14.6798C13.429 14.9091 13.2476 15.14 13.0683 15.3727L12.1575 16.5622C12.0004 16.767 11.8109 17.0253 11.6463 17.219C11.5705 17.3196 11.4661 17.425 11.4171 17.5416C11.3102 17.7964 11.22 18.3695 11.1546 18.6598C11.0308 19.2092 10.8841 19.7542 10.77 20.3057C10.735 20.4753 10.5878 21.1499 10.5148 21.2707C10.3888 21.4793 10.1814 21.5974 9.94718 21.6287C9.70922 21.6606 9.43924 21.6207 9.24485 21.4684C9.08018 21.3393 8.98595 21.147 8.9613 20.9388C8.95258 20.8651 8.95682 20.7917 8.97044 20.719C9.04245 20.3345 9.14857 19.9547 9.2416 19.5754L9.65109 17.8752C9.73487 17.5296 9.79154 17.1763 9.89487 16.8315C9.93658 16.6923 9.94367 16.5378 10.0256 16.4127C10.1638 16.2018 10.3168 15.9937 10.4631 15.7892C10.7092 15.4468 10.9531 15.103 11.195 14.7577C11.2659 14.6575 11.5774 14.2545 11.5784 14.1505C11.581 13.8551 11.5032 13.5176 11.4738 13.2211C11.4297 12.8002 11.3972 12.3783 11.3554 11.9574L11.1619 10.0909C11.1425 9.88274 11.1209 9.67476 11.0973 9.46701C11.0789 9.31756 11.0386 9.10177 11.0501 8.95851C11.0691 8.72228 11.1577 8.4018 11.3051 8.2163C11.4646 8.01558 11.7112 7.84338 11.9673 7.82567C12.1535 7.8128 12.3793 7.81432 12.5676 7.81682C12.7338 7.81902 12.9775 7.80924 13.1346 7.82488C13.5766 7.88911 13.789 8.19778 14.0925 8.49898C14.4582 8.85797 14.8204 9.22062 15.179 9.58687L15.7173 10.1273C15.785 10.1946 16.011 10.4079 16.0542 10.4793C16.19 10.7038 16.2493 11.1466 16.3079 11.4026L16.514 12.3057C16.5681 12.5385 16.6342 12.755 16.6732 12.9932C16.7277 13.3264 16.8699 13.677 16.5366 13.9183C16.4157 14.0066 16.2651 14.0416 16.1188 14.0152C15.6644 13.9291 15.6503 13.5852 15.5644 13.2154L15.3727 12.354C15.3339 12.18 15.2791 12.0001 15.2419 11.8244C15.2168 11.7054 15.1774 11.3811 15.1182 11.2985C14.9847 11.1122 14.7236 10.902 14.5523 10.7376C14.4305 10.6207 14.1375 10.338 14.0077 10.2693ZM15.7759 21.3543C15.5773 21.1058 15.3591 20.7869 15.1701 20.5252L14.3346 19.3867L13.7064 18.5409C13.6348 18.4461 13.5643 18.3484 13.4902 18.2542C13.1851 17.8658 12.9978 17.3941 12.7437 16.9707C12.6756 16.8573 12.6292 16.7339 12.5505 16.6277C12.8895 16.1695 13.2581 15.7159 13.6031 15.26C13.6943 15.1395 14.0761 14.6344 14.1516 14.5708L14.4061 15.581C14.4831 15.8876 14.5663 16.1845 14.6237 16.4969C14.6536 16.6143 14.691 16.7335 14.7243 16.8497C14.7594 16.9722 14.7713 17.1639 14.8284 17.2737C14.9384 17.485 15.1226 17.7015 15.2601 17.8931C15.5886 18.3588 15.9199 18.8225 16.254 19.2841C16.4105 19.5014 16.5727 19.7171 16.7231 19.938C16.8277 20.1008 16.9777 20.2817 17.0441 20.464C17.2656 21.0721 16.9357 21.7345 16.2338 21.6278C16.02 21.5953 15.9139 21.518 15.7759 21.3543ZM10.9782 11.8032C10.2417 12.3623 9.40487 12.8431 8.64473 13.3744C8.45451 13.5074 8.20637 13.5147 8.0044 13.3962C7.72844 13.219 7.64423 12.7992 7.81967 12.5265C7.93641 12.345 8.25253 12.1858 8.4331 12.0745L9.30923 11.5363C9.43184 11.4616 9.72625 11.2892 9.82494 11.2107C9.9614 11.1021 10.2115 10.7606 10.3299 10.6014C10.4979 10.3754 10.6188 10.2312 10.7993 10.0204C10.8378 10.5657 10.9273 11.0973 10.9703 11.6417C10.9746 11.6959 10.9783 11.7488 10.9782 11.8032Z" fill="#1B1B1D"/>
<path d="M12.0206 3.37482C11.0643 3.31622 10.2421 4.05951 10.1832 5.03595C10.1243 6.01237 10.851 6.85305 11.8072 6.91468C12.7654 6.97647 13.591 6.23249 13.65 5.25391C13.709 4.27533 12.9791 3.43356 12.0206 3.37482ZM11.8081 6.55147C11.046 6.48943 10.4786 5.80634 10.5431 5.02844C10.6076 4.25055 11.2794 3.67458 12.0409 3.74424C12.7971 3.81344 13.3565 4.49359 13.2924 5.26611C13.2284 6.03863 12.565 6.61309 11.8081 6.55147Z" fill="#1B1B1D"/>
</svg>
