<svg width="24" height="24" viewBox="0 0 24 24" fill="none" xmlns="http://www.w3.org/2000/svg">
<path d="M10.1107 7.55142C10.2548 7.54347 10.4513 7.54863 10.6001 7.5484L11.5277 7.5478L12.478 7.54828C12.8584 7.54831 13.2526 7.52417 13.6309 7.62905C14.4101 7.84501 15.0583 8.51548 15.1538 9.34137C15.1797 9.56585 15.1654 9.83992 15.1653 10.0701L15.1654 11.3103L15.1652 13.2601C15.1652 13.5909 15.1681 13.9217 15.1645 14.2529C15.161 14.5592 14.9808 14.8798 14.7052 15.0179C14.3937 15.1738 14.1034 15.1376 13.7858 15.0369C13.7865 15.0485 13.787 15.0601 13.7872 15.0717C13.7992 15.5084 13.7868 15.9897 13.7864 16.4309L13.7845 19.1117L13.7847 20.4592C13.785 20.8894 13.8444 21.4412 13.5198 21.779C13.3255 21.9811 13.0671 22.0652 12.7916 22.0698C12.2915 22.0748 11.9857 22.1071 11.6193 21.6978C11.3435 22.0665 10.9487 22.0788 10.5372 22.0701C10.2334 22.0746 9.94233 21.9949 9.72228 21.7681C9.38888 21.4243 9.43767 20.9994 9.43992 20.5622L9.44642 19.3692L9.4574 15.0369C9.10808 15.1804 8.69645 15.1593 8.395 14.9103C8.25502 14.7946 8.10424 14.5304 8.096 14.3452C8.08163 14.0227 8.08833 13.6943 8.08846 13.3705L8.08913 11.5358L8.09009 10.1151C8.09 9.8811 8.06804 9.45706 8.11461 9.23612C8.32549 8.2358 9.12201 7.62929 10.1107 7.55142ZM9.49231 10.1984C9.60449 10.1998 9.73763 10.2049 9.84822 10.2012L9.81748 17.7406L9.81199 20.023L9.80854 20.6892C9.80731 20.827 9.80097 20.9898 9.81307 21.1246C9.82666 21.2759 9.88562 21.4268 9.99433 21.5349C10.2152 21.7548 10.4632 21.7288 10.7452 21.7301C10.9425 21.7357 11.1256 21.6963 11.2672 21.5487C11.3589 21.4532 11.4099 21.3346 11.4197 21.2016C11.4368 20.9697 11.4272 20.7279 11.4268 20.495L11.4284 19.2315C11.4282 17.9012 11.443 16.5413 11.4277 15.213L11.4275 15.1926C11.5437 15.1896 11.6932 15.1931 11.8047 15.1872C11.7965 15.6716 11.8042 16.1667 11.8034 16.6522L11.8036 19.8304L11.8023 20.7234C11.8018 21.0019 11.7564 21.3335 11.9606 21.5442C12.1573 21.7471 12.4088 21.7306 12.6684 21.7308C12.8851 21.7327 13.069 21.711 13.2322 21.5488C13.4473 21.3348 13.411 21.0161 13.4114 20.7361L13.4117 19.9995L13.4123 17.6647L13.4152 10.2013C13.5343 10.1993 13.6709 10.2032 13.7873 10.199L13.7906 13.1549L13.7902 14.0897C13.7904 14.2165 13.7834 14.4309 13.792 14.5512C14.0194 14.9355 14.692 14.8143 14.7666 14.3926C14.8099 14.148 14.7912 13.8124 14.7911 13.5556L14.7908 12.0935L14.7915 10.358C14.7918 9.7756 14.8653 9.17174 14.5155 8.67446C14.2488 8.29521 13.8573 8.02321 13.4017 7.93267C13.1636 7.88568 12.9374 7.89671 12.698 7.89711L11.9391 7.89853L10.7451 7.89789C10.5431 7.89784 10.3212 7.89307 10.1218 7.89996C9.81366 7.92398 9.58295 7.981 9.31398 8.13839C8.81948 8.42774 8.47906 8.94634 8.46376 9.52933C8.45822 9.74089 8.46204 9.96212 8.46204 10.1772L8.46174 11.5686L8.4618 13.3494C8.46195 13.6444 8.46224 13.9364 8.46584 14.2396C8.47115 14.6872 8.89428 14.8944 9.28314 14.7269C9.50736 14.6303 9.45395 14.3948 9.45782 14.1965C9.47821 13.1098 9.48518 12.0228 9.48803 10.9357C9.48853 10.6919 9.49665 10.4407 9.49231 10.1984Z" fill="#19191A"/>
<path d="M11.4859 3.48049C11.4883 3.48008 11.4907 3.47968 11.4931 3.47928C12.4056 3.40428 13.3463 4.02344 13.4721 4.97294C13.6172 6.06815 12.8333 6.856 11.797 6.9826C11.3815 7.01738 10.8931 6.9125 10.5493 6.66559C9.11096 5.63274 9.74489 3.65696 11.4859 3.48049ZM11.6699 6.63944C12.3396 6.60081 12.8911 6.21338 13.0796 5.55198C13.3371 4.64905 12.4843 3.77042 11.6015 3.82811C11.5964 3.82843 11.5913 3.82884 11.5863 3.82936C11.1482 3.86059 10.8078 3.9916 10.4989 4.32575C10.2783 4.5643 10.1048 4.99103 10.1344 5.31515C10.1663 5.6627 10.3509 6.03822 10.619 6.26657C10.913 6.51523 11.2864 6.64771 11.6699 6.63944Z" fill="#19191A"/>
</svg>
