<svg width="24" height="24" viewBox="0 0 24 24" fill="none" xmlns="http://www.w3.org/2000/svg">
<path d="M10.2476 7.45959C10.5741 7.45212 10.9259 7.45737 11.254 7.45721L12.3027 7.45806C12.7189 7.45826 13.1231 7.42654 13.5098 7.60629C13.7835 7.73348 13.9244 7.81759 14.1345 8.03042C14.423 8.32814 14.6081 8.71224 14.6621 9.12514C14.6847 9.30576 14.6812 9.50278 14.681 9.68558L14.6611 12.844L14.6553 13.775C14.6541 13.9582 14.6533 14.1234 14.6394 14.3115C14.596 14.8984 13.685 15.0281 13.5992 14.4239C13.581 14.2954 13.5966 14.0646 13.5979 13.9251L13.6007 13.0875C13.6022 12.0946 13.5995 11.0824 13.6135 10.0908C13.5207 10.0851 13.4056 10.0875 13.311 10.0871C13.3137 10.1239 13.3146 10.1776 13.3145 10.2147C13.3122 11.0135 13.3108 11.8129 13.3094 12.6116L13.2933 17.5454L13.282 19.8785L13.2808 20.6466C13.2805 20.7935 13.2868 20.9514 13.2726 21.0949C13.234 21.4874 12.9563 21.764 12.5586 21.7461C12.2989 21.7344 12.0468 21.7846 11.8444 21.5672C11.6065 21.3114 11.6526 20.8962 11.6546 20.5705L11.6576 19.6624L11.6646 16.1964C11.6652 15.8156 11.6555 15.386 11.6716 15.0105C11.5668 15.0091 11.4602 15.0099 11.3552 15.0096C11.3639 15.326 11.3536 15.6955 11.3528 16.0169L11.3451 18.2777L11.3426 20.1256C11.3421 20.4373 11.3439 20.7546 11.3391 21.067C11.3364 21.2406 11.2662 21.4705 11.1307 21.5916C10.9214 21.7787 10.618 21.7487 10.3575 21.7442C9.99202 21.738 9.7065 21.4011 9.69484 21.0434C9.68814 20.8382 9.69106 20.6349 9.69168 20.4306L9.69701 19.2995L9.71053 16.0385L9.71403 12.0524L9.71504 10.7909C9.71522 10.5845 9.70742 10.2933 9.72138 10.0911C9.62655 10.0897 9.53173 10.089 9.4369 10.0889C9.44216 11.0317 9.42642 11.9931 9.42375 12.9382L9.42191 13.916C9.42158 14.0781 9.42843 14.2622 9.41636 14.4225C9.38026 14.9028 8.67699 14.9434 8.47721 14.5569C8.42101 14.4481 8.3833 14.3392 8.38234 14.2147C8.37875 13.9048 8.38139 13.5948 8.38071 13.285L8.38066 11.2123L8.3803 9.973C8.38026 9.68065 8.36389 9.31271 8.41889 9.03373C8.48804 8.67313 8.65677 8.33964 8.90562 8.07171C9.26961 7.672 9.7157 7.48273 10.2476 7.45959Z" fill="black"/>
<path d="M11.4322 3.45388C12.3499 3.36093 13.1692 4.03499 13.2642 4.96122C13.3593 5.88746 12.6944 6.71682 11.7773 6.81584C10.8559 6.91532 10.0298 6.24017 9.93428 5.30964C9.83876 4.37911 10.5102 3.54727 11.4322 3.45388Z" fill="black"/>
</svg>
